<svg xmlns="http://www.w3.org/2000/svg" width="201" height="43" viewBox="0 0 201 43" fill="none">
  <path fill-rule="evenodd" clip-rule="evenodd" d="M118.211 12.4276C122.353 12.4276 125.312 15.9784 125.312 20.1209C125.312 24.1155 122.797 27.5184 118.211 27.5184C114.068 27.5184 111.109 23.9676 111.109 19.973V19.825C111.109 15.8304 113.772 12.4276 118.211 12.4276ZM118.359 5.76998C109.926 5.76998 103.564 12.1317 103.564 20.1209C103.564 27.8142 109.778 34.176 118.211 34.176C126.644 34.176 133.005 27.8142 133.005 19.973V19.825C133.005 11.9838 126.792 5.76998 118.359 5.76998ZM90.8402 5.76998C82.4072 5.76998 76.4892 12.2797 76.4892 20.1209C76.4892 27.8142 82.5551 34.176 90.8402 34.176C96.1663 34.176 100.013 31.9568 102.676 28.9978L98.8294 24.1155C96.9061 26.4827 93.6512 27.5184 91.1361 27.5184C86.8456 27.5184 84.1825 24.1155 84.1825 19.973C84.1825 15.9784 86.9935 12.2797 90.8402 12.2797C95.116 12.2797 96.4531 14.1899 97.4872 15.6673L97.4979 15.6825C97.4979 15.6825 98.6814 15.6825 99.865 14.4989C102.676 11.8358 100.605 8.58099 97.3499 7.10151C95.5745 6.21382 93.5033 5.76998 90.8402 5.76998ZM60.3629 12.8715V23.5238C60.3629 30.9212 65.689 33.7322 70.8672 33.7322C72.1987 33.7322 72.9385 33.7322 74.27 33.4363V26.7786C73.2344 26.9266 72.9385 26.9266 71.459 26.9266C69.3877 26.9266 68.0562 25.0032 68.0562 23.2279V12.8715H73.8261V6.21382H68.0562V0H60.3629V6.21382H57.108V12.8715H60.3629ZM43.2009 11.6879C46.0119 11.6879 47.4914 13.7592 47.7873 16.1263H37.7268C38.0227 13.6112 40.6858 11.6879 43.2009 11.6879ZM43.2009 5.76998C35.2117 5.76998 29.7376 12.2797 29.7376 20.1209C29.7376 28.406 35.6555 34.176 43.9406 34.176C48.527 34.176 52.2257 32.5486 55.1847 29.5896L51.9298 24.2635C49.8585 26.3348 46.7516 27.6663 44.0886 27.6663C40.6858 27.6663 38.1706 25.1512 37.4309 21.6004H48.527C50.0065 21.6004 55.0367 21.3045 55.0367 17.3099C55.0367 12.8715 52.3737 5.76998 43.2009 5.76998ZM13.1674 12.4276C16.8661 12.4276 19.2333 15.6825 19.2333 20.2689C19.2333 24.7073 16.4223 27.6663 13.1674 27.8142C9.91253 27.8142 7.10152 24.8553 7.10152 20.2689C7.10152 15.6825 9.46869 12.4276 13.1674 12.4276ZM14.6469 34.0281C23.0799 34.0281 26.7786 26.7786 26.7786 19.825C26.7786 12.8715 22.6361 5.76998 15.6825 5.76998C11.6879 5.76998 8.72894 6.80561 6.80561 9.32073V6.21382H0V42.757C0 42.757 7.39741 43.3488 7.39741 37.8747V31.2171C9.17279 32.8445 10.5043 34.0281 14.6469 34.0281ZM199.259 36.4718C198.515 35.7278 197.771 35.3558 197.027 35.7278C196.624 35.8286 196.221 35.9838 195.811 36.142C194.706 36.5678 193.548 37.0143 192.191 36.4718C190.343 35.8556 190.309 34.1055 190.273 32.2858C190.245 30.8097 190.215 29.2878 189.216 28.2883C188.333 27.4056 187.199 27.2769 186.052 27.1469C184.782 27.0028 183.497 26.8571 182.52 25.6844C181.032 24.5685 181.032 22.7086 181.404 20.8487C181.404 19.5958 180.818 18.8117 180.238 18.036C179.785 17.4298 179.335 16.8288 179.172 16.013C178.8 12.6652 179.916 9.68938 182.148 7.82949C182.957 8.63864 183.571 9.64335 184.13 10.56L184.131 10.5613C184.343 10.9084 184.547 11.2428 184.752 11.5493H188.844C190.331 9.3174 191.447 6.71356 190.703 3.73774C190.331 2.99378 189.587 1.87785 188.844 1.50587C186.612 -0.354013 183.264 -0.354017 180.66 0.761915C179.172 1.50586 177.684 2.62181 176.196 3.73774C173.592 2.99378 170.245 2.99378 167.641 3.73774C165.781 1.50587 163.177 0.38994 160.573 0.38994C157.969 0.38994 155.366 1.50587 154.25 3.73774C154.104 4.029 154.072 4.32026 154.043 4.5892C153.998 5.0072 153.958 5.37128 153.506 5.59763C149.786 7.45751 147.926 11.5493 148.298 16.013H147.182C146.438 16.013 146.066 16.013 146.066 16.385C146.066 16.757 146.438 17.1289 146.438 17.1289H147.926V18.2449H146.066C145.694 18.2449 145.694 18.6168 145.694 18.9888C145.694 19.3608 146.066 19.7328 146.066 19.7328H148.298C148.538 20.2132 148.933 20.5385 149.384 20.909C149.631 21.1123 149.894 21.3291 150.158 21.5927C150.53 21.9646 150.902 22.2436 151.274 22.5226C151.646 22.8016 152.018 23.0806 152.39 23.4526C152.39 23.8245 152.39 24.5685 152.018 24.9405C151.591 25.1113 151.163 25.2626 150.741 25.4122C149.323 25.9142 147.956 26.3981 146.81 27.5443C145.322 28.6602 144.95 30.5201 144.95 32.008V36.0998C144.95 36.0998 144.95 36.4718 144.578 36.4718L144.206 36.8438H138.255V34.9839C138.255 33.496 137.139 32.38 135.651 32.38C134.163 32.38 133.047 33.496 133.047 34.9839V37.2157C133.047 37.5877 133.047 39.4476 134.535 40.9355C136.023 42.4234 137.511 42.4234 137.883 42.4234H144.206C144.751 42.4234 145.096 42.2241 145.534 41.9713C145.694 41.8788 145.867 41.7791 146.066 41.6795C146.438 42.0514 146.81 42.4234 147.554 42.4234H154.25C155.366 42.4234 156.109 42.4234 156.853 41.6795C157.225 42.0514 157.597 42.4234 158.341 42.7954C159.085 43.1674 159.829 42.7954 160.573 42.4234C160.759 42.4234 160.852 42.2374 160.945 42.0514C161.038 41.8654 161.131 41.6795 161.317 41.6795C161.689 42.4234 162.433 42.7954 163.549 42.7954C164.665 42.7954 165.409 42.0514 165.781 41.6795C165.967 41.8655 166.246 42.0514 166.525 42.2374C166.804 42.4234 167.083 42.6094 167.269 42.7954C168.757 43.1674 170.245 42.7954 171.361 41.6795C171.733 42.0514 172.105 42.4234 172.848 42.4234C174.336 42.7954 175.824 42.4234 176.94 41.3075C177.312 42.0514 177.684 42.4234 178.428 42.4234H187.356C188.1 42.4234 188.844 42.0514 189.587 41.3075C191.075 42.4234 193.307 42.7954 195.167 42.7954C197.027 42.4234 199.631 41.3075 200.003 39.0756C200.375 37.9597 200.003 36.8438 199.259 36.4718ZM188.257 39.0919C188.257 39.4639 187.885 40.5798 187.141 40.5798H178.958C178.214 40.5798 177.842 40.2079 177.842 39.4639C177.842 38.72 178.214 38.348 178.958 38.348H182.678C183.258 38.0575 183.386 37.7671 183.591 37.2996C183.648 37.1685 183.712 37.0229 183.794 36.8601V30.9084C183.794 29.7925 184.909 28.6766 186.025 28.6766C187.141 28.6766 188.257 29.7925 188.257 30.9084V39.0919ZM166.683 39.0919V32.7683C166.891 32.1435 167.187 31.5478 167.48 30.9568C168.235 29.4368 168.974 27.9476 168.17 26.0727C168.542 26.0727 168.914 26.0727 169.286 25.7007C170.03 26.8167 171.518 27.5606 173.006 27.1886C174.122 26.8167 174.866 26.4447 175.61 25.7007C177.098 26.0727 178.958 25.7007 180.074 24.5848C180.446 26.0727 181.562 27.1886 182.678 27.5606C182.306 27.9326 181.934 28.3046 181.934 28.6766C181.562 29.7925 181.562 31.3734 181.562 32.7683C181.562 34.1632 181.562 35.3722 181.19 35.7441C180.446 36.4881 177.842 36.1161 177.842 36.1161V31.6524C177.842 30.9084 177.47 30.5364 176.726 30.5364C175.982 30.5364 175.61 30.9084 175.61 31.6524V38.72C175.61 39.8359 174.866 40.5798 174.122 40.5798C173.006 40.5798 172.262 39.8359 172.262 39.0919V32.0244C172.262 31.2804 171.89 30.9084 171.146 30.9084C170.402 30.9084 170.03 31.2804 170.03 32.0244V39.0919C170.03 40.2079 169.286 40.9518 168.542 40.9518C167.426 40.5798 166.683 39.8359 166.683 39.0919ZM187.513 3.75405C186.769 3.01009 186.025 2.63812 184.909 2.26614C181.562 1.89416 178.586 3.38207 176.726 5.98592C173.75 4.49801 169.658 4.49801 166.683 5.98592C164.823 3.01009 161.847 1.52218 158.499 2.26614C157.383 3.01009 156.267 3.75405 155.895 4.86998C155.151 6.35789 155.895 8.21778 157.011 9.70569H158.499C159.243 8.21778 160.359 5.98592 162.219 5.61394C165.939 7.84581 167.798 11.9376 167.426 16.0293C167.426 17.0501 166.882 17.8374 166.326 18.6405C165.667 19.5932 164.993 20.568 165.195 21.981C165.195 22.7249 165.939 23.4689 166.311 23.8408C167.426 24.5848 168.914 24.2128 170.03 23.4689C171.146 22.7249 171.518 20.865 171.146 19.7491H170.03C169.286 19.7491 168.914 19.3771 168.914 18.6332C168.914 17.8892 169.286 17.5172 170.03 17.5172H174.122C174.866 17.5172 175.238 17.8892 175.238 18.6332C175.238 19.3771 174.866 19.7491 174.122 19.7491H173.006C172.634 21.237 173.006 22.3529 174.122 23.4689C174.866 24.2128 176.354 24.5848 177.47 24.2128C178.214 23.8408 178.586 23.4689 178.958 22.7249C179.33 21.981 179.33 21.237 178.958 20.493C178.795 20.276 178.632 20.0667 178.473 19.8621C177.54 18.6637 176.726 17.6178 176.726 16.0293C176.726 11.1936 178.586 7.47383 182.306 5.24196C183.794 5.98591 185.281 7.8458 186.025 9.33372H187.513L188.257 7.47383C188.629 6.72987 188.629 4.86998 187.513 3.75405ZM172.262 25.3288C173.006 25.3288 173.75 25.3288 174.494 24.5848C173.006 24.9568 172.262 23.8408 172.262 23.8408C172.262 23.8408 171.518 24.9568 170.03 24.5848C170.774 25.3288 171.518 25.3288 172.262 25.3288ZM190.489 37.232V39.4639C191.605 40.9518 194.209 40.9518 196.069 40.2079C196.813 39.8359 198.301 39.0919 197.929 37.976C197.452 37.0225 196.822 37.4438 196.04 37.9673C195.602 38.2608 195.115 38.5863 194.581 38.72C193.465 38.72 191.605 38.348 190.489 37.232ZM150.678 33.0509C149.934 33.0509 149.562 32.679 149.562 31.935C149.562 31.191 149.934 30.8191 150.678 30.8191C150.678 30.8191 151.422 30.8191 152.166 31.191C153.468 31.4514 153.494 32.9877 153.52 34.524C153.531 35.1824 153.542 35.8408 153.654 36.3987C154.398 36.3987 155.141 36.3987 155.885 36.7707V31.935C155.513 31.191 156.257 30.8191 157.001 30.8191C157.745 30.8191 158.117 31.191 158.117 31.935V39.3746C158.117 40.1185 158.489 40.4905 159.233 40.4905C159.977 40.4905 160.349 40.1185 160.349 39.3746V31.935C160.349 31.191 160.721 30.8191 161.465 30.8191C162.209 30.8191 162.581 31.191 162.581 31.935V39.3746C162.581 40.1185 162.953 40.4905 163.697 40.4905C164.441 40.4905 164.813 40.1185 164.813 39.3746V31.935C164.813 30.9431 165.144 30.2818 165.474 29.6205C165.64 29.2898 165.805 28.9592 165.929 28.5872C166.301 27.4713 165.929 25.9834 165.557 25.6114C162.953 23.7515 162.209 22.6356 162.953 20.4037C162.953 20.2177 163.046 20.0317 163.139 19.8457C163.232 19.6597 163.325 19.4737 163.325 19.2878H162.581C162.209 19.2878 161.837 18.9158 161.837 18.5438C161.837 18.1718 162.209 17.7998 162.581 17.7998H164.441C164.441 17.6139 164.534 17.4279 164.627 17.2419C164.72 17.0559 164.813 16.8699 164.813 16.6839H162.581C162.209 16.6839 161.837 16.3119 161.837 16.3119C161.837 15.94 162.209 15.94 162.581 15.94H165.185C165.557 12.9641 164.441 9.98831 162.209 8.12842C160.534 9.13376 159.764 10.7429 159.356 11.5959C159.311 11.6898 159.27 11.7745 159.233 11.8482C158.117 11.4762 156.629 11.4762 155.513 11.8482C155.141 10.3603 154.026 8.87238 152.538 8.12842C150.306 9.98831 149.19 12.9641 149.562 15.94H151.794C152.538 15.94 152.91 16.3119 152.91 16.3119C152.91 16.6839 152.538 16.6839 152.166 16.6839H150.306C150.306 16.8699 150.399 17.0559 150.492 17.2419C150.585 17.4279 150.678 17.6139 150.678 17.7998H152.166C152.538 17.7998 152.91 18.1718 152.91 18.5438C152.91 18.9158 152.166 19.2878 152.166 19.2878H151.422C151.794 19.6597 152.259 20.0316 152.723 20.4035C153.188 20.7754 153.654 21.1477 154.026 21.5196C155.141 22.2636 155.141 23.3795 154.77 24.4954C154.062 26.2632 152.347 26.6868 150.901 27.0439L150.896 27.0453C150.822 27.0634 150.75 27.0813 150.678 27.0993C147.347 28.3805 147.546 31.4268 147.749 34.5359C147.841 35.9403 147.933 37.3575 147.702 38.6306V39.3746C147.702 40.1185 148.074 40.4905 148.818 40.4905H154.77C155.513 40.4905 155.885 40.1185 155.885 39.3746C155.885 38.6306 155.513 38.2586 154.77 38.2586H152.538C151.794 38.2586 151.422 37.8866 151.422 37.1427C151.422 37.1427 151.422 34.1669 151.05 33.4229C151.05 33.0509 150.678 33.0509 150.678 33.0509ZM137.287 38.2586C137.659 38.6306 138.402 38.6306 138.402 38.6306H144.726C145.098 38.6306 145.842 39.0026 145.842 39.7465C145.842 40.1185 145.47 40.8625 144.726 40.8625H138.402C138.402 40.8625 137.287 40.8625 136.171 40.1185C135.055 38.6306 135.055 37.1427 135.055 37.1427V34.9108C135.055 34.5388 135.427 33.7949 136.171 33.7949C136.543 33.7949 137.287 34.1669 137.287 34.9108V37.1427C136.915 37.1427 136.915 37.8866 137.287 38.2586ZM169.286 15.2854C170.03 15.2854 170.402 14.9134 170.402 14.1694C170.402 13.7974 169.658 13.0535 168.914 13.0535C168.17 13.0535 167.798 13.4255 167.798 14.1694C167.798 14.9134 168.542 15.2854 169.286 15.2854ZM175.238 15.2854C175.982 15.2854 176.354 14.9134 176.354 14.1694C176.354 13.7974 175.61 13.0535 175.238 13.0535C174.494 13.0535 174.122 13.4255 174.122 14.1694C174.122 14.9134 174.494 15.2854 175.238 15.2854ZM161.837 14.452C161.837 15.196 161.465 15.568 160.721 15.568C159.977 15.568 159.605 15.196 159.605 14.452C159.605 13.7081 159.977 13.3361 160.721 13.3361C161.465 13.3361 161.837 13.7081 161.837 14.452ZM154.77 15.568C155.513 15.568 155.885 15.196 155.885 14.452C155.885 13.7081 155.141 13.3361 154.77 13.3361C154.026 13.3361 153.654 13.7081 153.654 14.452C153.654 15.196 154.026 15.568 154.77 15.568ZM158.117 20.0317C158.117 20.4037 157.745 20.4037 157.745 20.4037C157.373 20.7757 157.001 20.4037 157.001 20.0317H158.117ZM159.233 19.6597C160.349 19.6597 161.093 18.9158 161.093 17.7998C161.093 18.5438 160.349 18.9158 159.977 18.9158C159.233 18.9158 158.861 18.1718 158.861 17.7998V17.4279C159.233 17.4279 159.605 17.0559 159.605 16.3119H157.001C157.001 16.6839 157.373 17.0559 157.745 17.4279V17.7998C157.745 18.5438 157.001 18.9158 156.629 18.9158C155.885 18.9158 155.513 18.1718 155.513 17.7998H154.398C154.398 18.9158 155.141 19.6597 156.257 19.6597C157.001 19.6597 157.373 19.2878 157.745 18.9158C158.117 19.2878 158.489 19.6597 159.233 19.6597Z" fill="#8AB9FF"/>
</svg>
